<svg width="78" height="78" viewBox="0 0 78 78" fill="none" xmlns="http://www.w3.org/2000/svg">
<g clip-path="url(#clip0)">
<path d="M48.7495 42.2506C46.9523 42.2506 45.4997 43.7068 45.4997 45.5004V58.5006C45.4997 60.2912 44.0435 61.7504 42.2494 61.7504H32.4995V13.0009C32.4995 10.2254 30.7315 7.74568 28.0732 6.8227L27.111 6.50076H42.2494C44.0435 6.50076 45.4997 7.95991 45.4997 9.75112V19.501C45.4997 21.2946 46.9523 22.7508 48.7495 22.7508C50.5466 22.7508 51.9993 21.2946 51.9993 19.501V9.75112C51.9993 4.3757 47.6248 0.0012207 42.2494 0.0012207H7.31242C7.18865 0.0012207 7.0851 0.0565638 6.96489 0.0726311C6.80838 0.0595392 6.65902 0.0012207 6.50013 0.0012207C2.91533 0.0012207 0 2.91596 0 6.50076V65.0002C0 67.7757 1.768 70.2554 4.42625 71.1784L23.985 77.6981C24.6479 77.9028 25.3072 78.0004 25.9999 78.0004C29.5847 78.0004 32.4995 75.0851 32.4995 71.5003V68.2505H42.2494C47.6248 68.2505 51.9993 63.876 51.9993 58.5006V45.5004C51.9993 43.7068 50.5466 42.2506 48.7495 42.2506Z" fill="white"/>
<path d="M77.0471 30.2028L64.0468 17.2031C63.1179 16.2736 61.72 15.9939 60.5049 16.4974C59.2927 17.0014 58.4994 18.1874 58.4994 19.5008V29.2506H45.4998C43.7056 29.2506 42.2494 30.7062 42.2494 32.5004C42.2494 34.2946 43.7056 35.7502 45.4998 35.7502H58.4994V45.5001C58.4994 46.8134 59.2927 47.9994 60.5049 48.5035C61.72 49.0069 63.1179 48.7272 64.0468 47.7983L77.0471 34.798C78.3176 33.5275 78.3176 31.4733 77.0471 30.2028Z" fill="white"/>
</g>
<defs>
<clipPath id="clip0">
<rect width="78" height="78" fill="white"/>
</clipPath>
</defs>
</svg>
