<svg width="116" height="102" viewBox="0 0 116 102" fill="none" xmlns="http://www.w3.org/2000/svg">
<path d="M49.4591 97.9182C76.2224 97.9182 97.9182 76.2224 97.9182 49.4591C97.9182 22.6959 76.2224 1 49.4591 1C22.6959 1 1 22.6959 1 49.4591C1 76.2224 22.6959 97.9182 49.4591 97.9182Z" stroke="#3F3D56" stroke-width="2" stroke-miterlimit="10"/>
<path d="M98.375 72.5679C100.893 66.6946 102.187 60.3698 102.179 53.9796C102.179 27.9154 81.0501 6.78616 54.9859 6.78616C28.9217 6.78616 7.79254 27.9154 7.79254 53.9796C7.79254 80.0438 28.9217 101.173 54.9859 101.173C61.6667 101.18 68.2724 99.7649 74.3641 97.0219C80.4557 94.2788 85.8938 90.2705 90.3167 85.2635L107.351 87.5576L108.045 82.3173L98.375 72.5679Z" fill="#F2F2F2"/>
<path opacity="0.6" d="M108.045 82.3173L107.351 87.5576L116 89.0582L108.045 82.3173Z" fill="#F2F2F2"/>
<path d="M87.1381 58.1839C87.1382 58.1618 87.1385 58.1398 87.1385 58.1177C87.1385 58.105 87.1383 58.0923 87.1383 58.0796H87.1292C86.7211 55.4839 72.4403 53.3983 55.701 53.3983C38.9617 53.3983 24.681 55.4839 24.2728 58.0796H24.2637C24.2637 58.0923 24.2635 58.105 24.2635 58.1177C24.2635 58.1398 24.2639 58.1618 24.2639 58.1839C24.2639 58.1872 24.2635 58.1905 24.2635 58.1938C24.2635 58.1982 24.264 58.2027 24.2641 58.2071C24.2877 66.5293 27.6102 74.5025 33.5032 80.3788C39.3962 86.2551 47.3788 89.555 55.701 89.555C64.0232 89.555 72.0058 86.2551 77.8988 80.3788C83.7918 74.5025 87.1144 66.5293 87.138 58.2071C87.1381 58.2027 87.1385 58.1983 87.1385 58.1938C87.1385 58.1905 87.1382 58.1872 87.1381 58.1839Z" fill="#3F3D56"/>
<path opacity="0.1" d="M55.701 62.9893C73.0635 62.9893 87.1385 60.8423 87.1385 58.1938C87.1385 55.5453 73.0635 53.3982 55.701 53.3982C38.3386 53.3982 24.2635 55.5453 24.2635 58.1938C24.2635 60.8423 38.3386 62.9893 55.701 62.9893Z" fill="white"/>
<path d="M65.3868 57.4049C68.4586 57.4049 70.9487 54.9147 70.9487 51.843C70.9487 48.7713 68.4586 46.2812 65.3868 46.2812C62.3151 46.2812 59.825 48.7713 59.825 51.843C59.825 54.9147 62.3151 57.4049 65.3868 57.4049Z" fill="#1C1427"/>
<path d="M65.3364 61.9013L65.382 51.8124" stroke="#3F3D56" stroke-width="2" stroke-miterlimit="10"/>
<path d="M65.382 53.2391C66.17 53.2391 66.8088 52.6004 66.8088 51.8124C66.8088 51.0244 66.17 50.3857 65.382 50.3857C64.5941 50.3857 63.9553 51.0244 63.9553 51.8124C63.9553 52.6004 64.5941 53.2391 65.382 53.2391Z" fill="#3F3D56"/>
<path d="M65.3539 58.0303C65.3539 58.0303 65.1699 53.6458 60.9894 54.1365L65.3539 58.0303Z" fill="#3F3D56"/>
<path d="M81.1749 42.1478C84.2466 42.1478 86.7368 39.6577 86.7368 36.586C86.7368 33.5143 84.2466 31.0242 81.1749 31.0242C78.1032 31.0242 75.6131 33.5143 75.6131 36.586C75.6131 39.6577 78.1032 42.1478 81.1749 42.1478Z" fill="#1C1427"/>
<path d="M80.86 57.1189L81.1801 36.5799" stroke="#3F3D56" stroke-width="2" stroke-miterlimit="10"/>
<path d="M81.1801 38.0066C81.968 38.0066 82.6068 37.3678 82.6068 36.5799C82.6068 35.7919 81.968 35.1531 81.1801 35.1531C80.3921 35.1531 79.7534 35.7919 79.7534 36.5799C79.7534 37.3678 80.3921 38.0066 81.1801 38.0066Z" fill="#3F3D56"/>
<path d="M81.0895 42.3896C81.0895 42.3896 80.9541 38.0032 76.7684 38.4476L81.0895 42.3896Z" fill="#3F3D56"/>
<path d="M80.8661 56.7267C80.8661 56.7267 81.9145 48.3122 76.6223 47.8221" stroke="#3F3D56" stroke-width="2" stroke-miterlimit="10"/>
<path d="M76.6223 49.2488C77.4102 49.2488 78.049 48.61 78.049 47.822C78.049 47.0341 77.4102 46.3953 76.6223 46.3953C75.8343 46.3953 75.1956 47.0341 75.1956 47.822C75.1956 48.61 75.8343 49.2488 76.6223 49.2488Z" fill="#3F3D56"/>
<path d="M31.7775 29.5276C34.8492 29.5276 37.3394 27.0375 37.3394 23.9658C37.3394 20.894 34.8492 18.4039 31.7775 18.4039C28.7058 18.4039 26.2157 20.894 26.2157 23.9658C26.2157 27.0375 28.7058 29.5276 31.7775 29.5276Z" fill="#1C1427"/>
<path d="M31.781 57.6382V23.9862" stroke="#3F3D56" stroke-width="2" stroke-miterlimit="10"/>
<path d="M31.781 25.397C32.569 25.397 33.2077 24.7582 33.2077 23.9702C33.2077 23.1823 32.569 22.5435 31.781 22.5435C30.9931 22.5435 30.3543 23.1823 30.3543 23.9702C30.3543 24.7582 30.9931 25.397 31.781 25.397Z" fill="#3F3D56"/>
<path d="M27.3989 49.7444C28.1869 49.7444 28.8257 49.1056 28.8257 48.3177C28.8257 47.5297 28.1869 46.8909 27.3989 46.8909C26.611 46.8909 25.9722 47.5297 25.9722 48.3177C25.9722 49.1056 26.611 49.7444 27.3989 49.7444Z" fill="#3F3D56"/>
<path d="M31.7811 31.258C31.7811 31.258 31.5772 26.8743 27.399 27.3839L31.7811 31.258Z" fill="#3F3D56"/>
<path d="M31.7811 43.6852C31.7811 43.6852 31.5772 39.3016 27.399 39.8111L31.7811 43.6852Z" fill="#3F3D56"/>
<path d="M31.7811 57.246C31.7811 57.246 32.6982 48.7253 27.399 48.3177" stroke="#3F3D56" stroke-width="2" stroke-miterlimit="10"/>
<path d="M36.2506 36.3612C37.0386 36.3612 37.6774 35.7225 37.6774 34.9345C37.6774 34.1465 37.0386 33.5078 36.2506 33.5078C35.4627 33.5078 34.8239 34.1465 34.8239 34.9345C34.8239 35.7225 35.4627 36.3612 36.2506 36.3612Z" fill="#3F3D56"/>
<path d="M31.8686 43.4084C31.8686 43.4084 30.9514 35.3421 36.2506 34.9345" stroke="#3F3D56" stroke-width="2" stroke-miterlimit="10"/>
<path d="M67.674 42.4381C67.2785 42.4381 66.8918 42.3209 66.563 42.1011C66.2341 41.8814 65.9778 41.569 65.8264 41.2036C65.6751 40.8382 65.6355 40.4361 65.7126 40.0482C65.7898 39.6603 65.9802 39.3039 66.2599 39.0242C66.5396 38.7446 66.8959 38.5541 67.2839 38.4769C67.6718 38.3998 68.0739 38.4394 68.4393 38.5907C68.8047 38.7421 69.1171 38.9984 69.3368 39.3273C69.5566 39.6562 69.6738 40.0428 69.6738 40.4383C69.6732 40.9685 69.4624 41.4768 69.0874 41.8518C68.7125 42.2267 68.2042 42.4375 67.674 42.4381ZM67.674 38.6203C67.3144 38.6203 66.9629 38.7269 66.664 38.9267C66.365 39.1265 66.132 39.4104 65.9944 39.7426C65.8568 40.0748 65.8208 40.4403 65.8909 40.793C65.9611 41.1457 66.1342 41.4696 66.3885 41.7239C66.6427 41.9781 66.9667 42.1513 67.3193 42.2214C67.672 42.2916 68.0375 42.2556 68.3697 42.118C68.7019 41.9804 68.9859 41.7473 69.1856 41.4484C69.3854 41.1494 69.492 40.7979 69.492 40.4383C69.4915 39.9563 69.2998 39.4942 68.9589 39.1534C68.6181 38.8126 68.156 38.6209 67.674 38.6203Z" fill="#3F3D56"/>
<path d="M56.2322 28.5303C56.8849 28.5303 57.414 28.0013 57.414 27.3486C57.414 26.696 56.8849 26.1669 56.2322 26.1669C55.5796 26.1669 55.0505 26.696 55.0505 27.3486C55.0505 28.0013 55.5796 28.5303 56.2322 28.5303Z" fill="#3F3D56"/>
<path d="M55.016 47.575V57.5849L49.6114 60.6297L38.6502 59.7923V49.4399L44.0926 47.575H55.016Z" fill="#1C1427"/>
<path opacity="0.1" d="M55.016 47.6321V57.5849L49.6114 60.6297H49.4973V49.4781L55.016 47.6321Z" fill="black"/>
<path opacity="0.1" d="M55.016 47.575V47.6641L49.4973 49.4781H38.6502V49.4399L44.0926 47.575H55.016Z" fill="white"/>
<path opacity="0.1" d="M46.8695 48.8921C48.3254 48.8921 49.5056 48.6479 49.5056 48.3467C49.5056 48.0455 48.3254 47.8013 46.8695 47.8013C45.4136 47.8013 44.2333 48.0455 44.2333 48.3467C44.2333 48.6479 45.4136 48.8921 46.8695 48.8921Z" fill="black"/>
<path d="M46.8695 48.3607L45.6962 47.3023C41.5299 43.4771 38.7793 40.9943 38.7793 37.9016C38.769 37.3132 38.8768 36.7286 39.0964 36.1826C39.3161 35.6366 39.643 35.1402 40.0579 34.7228C40.4728 34.3054 40.9672 33.9754 41.5119 33.7525C42.0565 33.5296 42.6404 33.4182 43.2289 33.425C43.9234 33.4287 44.6088 33.5835 45.2375 33.8787C45.8661 34.1738 46.423 34.6023 46.8695 35.1343C47.3159 34.6023 47.8728 34.1738 48.5015 33.8786C49.1302 33.5835 49.8156 33.4287 50.5101 33.425C51.0985 33.4182 51.6824 33.5296 52.2271 33.7525C52.7718 33.9754 53.2662 34.3054 53.6811 34.7228C54.096 35.1402 54.4229 35.6366 54.6425 36.1826C54.8621 36.7286 54.97 37.3132 54.9597 37.9016C54.9597 40.9944 52.209 43.4771 48.0427 47.3023L46.8695 48.3607Z" fill="#FF6584"/>
<path d="M53.6702 99.1076C55.6963 99.1076 57.3388 97.4651 57.3388 95.439C57.3388 93.4129 55.6963 91.7704 53.6702 91.7704C51.6441 91.7704 50.0016 93.4129 50.0016 95.439C50.0016 97.4651 51.6441 99.1076 53.6702 99.1076Z" fill="#3F3D56"/>
<path d="M33.1413 91.6821C34.6149 91.6821 35.8094 90.4875 35.8094 89.014C35.8094 87.5405 34.6149 86.3459 33.1413 86.3459C31.6678 86.3459 30.4733 87.5405 30.4733 89.014C30.4733 90.4875 31.6678 91.6821 33.1413 91.6821Z" stroke="#3F3D56" stroke-width="2" stroke-miterlimit="10"/>
<path d="M76.5376 91.6821C78.0111 91.6821 79.2056 90.4875 79.2056 89.014C79.2056 87.5405 78.0111 86.3459 76.5376 86.3459C75.064 86.3459 73.8695 87.5405 73.8695 89.014C73.8695 90.4875 75.064 91.6821 76.5376 91.6821Z" stroke="#3F3D56" stroke-width="2" stroke-miterlimit="10"/>
<path d="M69.9437 26.0625C70.8989 26.0625 71.6733 25.2881 71.6733 24.3329C71.6733 23.3778 70.8989 22.6034 69.9437 22.6034C68.9886 22.6034 68.2142 23.3778 68.2142 24.3329C68.2142 25.2881 68.9886 26.0625 69.9437 26.0625Z" fill="#3F3D56"/>
<path d="M75.5961 28.7382H64.4984C64.1545 28.7378 63.8248 28.601 63.5816 28.3578C63.3384 28.1147 63.2016 27.785 63.2012 27.4411V20.3789C63.2016 20.035 63.3384 19.7053 63.5816 19.4621C63.8248 19.2189 64.1545 19.0821 64.4984 19.0818H75.5961C75.94 19.0821 76.2697 19.2189 76.5129 19.4621C76.756 19.7053 76.8928 20.035 76.8932 20.3789V27.4411C76.8928 27.785 76.756 28.1147 76.5129 28.3578C76.2697 28.601 75.94 28.7378 75.5961 28.7382ZM64.4984 19.37C64.2309 19.3703 63.9745 19.4767 63.7853 19.6658C63.5962 19.855 63.4898 20.1114 63.4895 20.3789V27.4411C63.4898 27.7085 63.5962 27.965 63.7853 28.1541C63.9745 28.3433 64.2309 28.4496 64.4984 28.4499H75.5961C75.8636 28.4496 76.12 28.3433 76.3091 28.1541C76.4983 27.965 76.6047 27.7085 76.605 27.4411V20.3789C76.6047 20.1114 76.4983 19.855 76.3091 19.6658C76.12 19.4767 75.8636 19.3703 75.5961 19.37H64.4984Z" fill="#3F3D56"/>
<path d="M69.9111 24.0993C69.6146 24.0998 69.325 24.0093 69.0816 23.8398L63.513 19.9465L63.6782 19.7103L69.2468 23.6036C69.4393 23.7371 69.6676 23.8095 69.9019 23.8113C70.1361 23.8131 70.3655 23.7444 70.5601 23.6139L76.2927 19.7383L76.4541 19.9771L70.7216 23.8528C70.4821 24.0139 70.1998 24.0998 69.9111 24.0993Z" fill="#3F3D56"/>
<path d="M55.7877 19.6242H41.8648C41.4333 19.6237 41.0197 19.4521 40.7146 19.147C40.4095 18.8419 40.2379 18.4283 40.2374 17.9969V9.13679C40.2379 8.70534 40.4095 8.2917 40.7146 7.98662C41.0197 7.68154 41.4333 7.50992 41.8648 7.50943H55.7877C56.2192 7.50992 56.6328 7.68154 56.9379 7.98662C57.243 8.2917 57.4146 8.70534 57.4151 9.13679V17.9969C57.4146 18.4283 57.243 18.8419 56.9379 19.147C56.6328 19.4521 56.2192 19.6237 55.7877 19.6242ZM41.8648 7.87107C41.5292 7.87144 41.2075 8.00491 40.9702 8.2422C40.7329 8.47949 40.5994 8.80121 40.5991 9.13679V17.9969C40.5994 18.3324 40.7329 18.6542 40.9702 18.8914C41.2075 19.1287 41.5292 19.2622 41.8648 19.2626H55.7877C56.1233 19.2622 56.445 19.1287 56.6823 18.8914C56.9196 18.6542 57.0531 18.3324 57.0535 17.9969V9.13679C57.0531 8.80121 56.9196 8.47949 56.6823 8.2422C56.445 8.00491 56.1233 7.87144 55.7877 7.87107H41.8648Z" fill="#3F3D56"/>
<path d="M48.7517 13.4868C48.3796 13.4875 48.0163 13.3738 47.7109 13.1612L40.7247 8.27677L40.9319 7.98047L47.9182 12.8649C48.1597 13.0324 48.4461 13.1232 48.74 13.1255C49.0339 13.1278 49.3217 13.0415 49.5659 12.8778L56.7578 8.01552L56.9603 8.31518L49.7684 13.1775C49.4679 13.3797 49.1138 13.4874 48.7517 13.4868Z" fill="#3F3D56"/>
<path d="M48.7359 15.6462C49.9342 15.6462 50.9057 14.6748 50.9057 13.4764C50.9057 12.2781 49.9342 11.3066 48.7359 11.3066C47.5375 11.3066 46.566 12.2781 46.566 13.4764C46.566 14.6748 47.5375 15.6462 48.7359 15.6462Z" fill="#3F3D56"/>
</svg>
